<?xml version="1.0" encoding="UTF-8"?>
<svg
  viewBox="78 88 72 68"
  xmlns="http://www.w3.org/2000/svg"
  xmlns:xlink="http://www.w3.org/1999/xlink">
  <defs>
    <linearGradient id="b-base">
      <stop stop-color="#73abb5" stop-opacity="1" offset="0.18072289"/>
      <stop stop-color="#c4b23d" stop-opacity="1" offset="0.52530122"/>
      <stop stop-color="#cfb23a" stop-opacity="0.98823529" offset="0.73012048"/>
      <stop stop-color="#b78801" stop-opacity="1" offset="1"/>
    </linearGradient>
    <linearGradient
      xlink:href="#b-base"
      id="b-fill"
      x1="148.75375" y1="121.54374"
      x2="148.75375" y2="157.77414"
      gradientUnits="userSpaceOnUse"
      gradientTransform="translate(-52.375817,-28.665238)"
    />
  </defs>
  <g transform="translate(6.7351921,7.8577241)">
    <path
      fill="url(#b-fill)"
      stroke-width="0.351345"
      d="m 78.468387,84.281877 v 3.42873 1.04076 19.011763 c 0,0.004 -1e-5,0.009 5.2e-4,0.0129 v 5.36608 l 6.29884,-5.25653 v -0.001 l 5.2e-4,5.2e-4 0.001,-5.2e-4 0.11472,0.11524 1.70843,1.69292 0.43253,-0.62529 h -10e-4 V 93.050337 h 12.077816 c 0.0303,-5.7e-4 0.0605,-5.1e-4 0.091,-5.1e-4 0.003,0 0.006,5.1e-4 0.009,5.1e-4 h 0.0155 v 0.001 c 3.000267,0.0146 5.412067,2.82244 5.412067,6.31021 v 0.0977 c 0,2.552833 -1.29191,4.742443 -3.16105,5.738663 v 0.29198 c 0.48209,-0.25735 0.96943,-0.61466 1.40767,-1.00356 l 5.08806,4.63899 0.0863,0.0791 0.65319,0.59428 c 2.81967,-2.69183 4.57182,-6.49216 4.57182,-10.716153 0,-8.17567 -6.56253,-14.76209 -14.728817,-14.80064 h -0.0946 z m 16.892516,19.294943 -4.026626,4.47673 -0.0326,-0.0253 -0.72295,-0.5457 -1.56993,1.58491 h -0.006 l -1.53945,1.48829 -0.77773,0.7183 -1.82521,-1.86242 -10e-4,-0.0134 -6.39083,5.27513 v 1.47898 c 0,0.003 3.4e-4,0.005 5.2e-4,0.008 l 6.15828,-5.07256 0.0682,0.0749 c 0.40071,0.79801 0.25256,1.79309 0.0403,2.73937 l 0.17209,-0.1204 -0.002,0.006 0.55345,-0.39171 0.3607,-0.25269 v -0.003 l 1.06971,-0.75757 h 0.001 l 3.50573,-2.8112 c 0.12405,0.42727 0.17666,0.94088 -0.81029,2.26549 l -0.03,0.0248 h 0.003 l 1.62316,-1.09761 c 0.46159,-0.25201 1.085211,-0.70998 1.204581,-0.0176 l 0.14004,1.11518 h 5.1e-4 l 3.305235,-2.3797 0.005,-0.62425 3.14295,3.20549 c 5.105597,2.59597 -0.0145,-0.008 5.059117,2.53576 l -3.77238,-5.009 2.51458,-2.29185 4.27777,3.85662 5.2e-4,-5.2e-4 h 5.1e-4 v -5.2e-4 h 5.2e-4 l 5.66529,4.97903 c -0.40691,-1.10502 -0.69515,-1.63234 -0.87953,-1.8123 l -4.05609,-3.72018 5.2e-4,-5.2e-4 5.2e-4,-5.2e-4 5.1e-4,-5.1e-4 -0.39222,-0.36587 -4.55011,-4.21576 -2.6572,2.43912 -1.190107,-1.20664 -0.0589,-0.0594 -2.6324,-2.6541 v 0.44648 h 0.006 l -1.8221,1.50275 0.86455,-1.50171 v -0.50178 h 5.2e-4 z m 8.251687,6.31693 -0.94258,0.8599 0.19068,0.37362 c 0.93324,0.44003 1.71652,0.94176 1.85984,1.90841 l 3.83646,1.33945 z m -25.180893,8.75709 0.0424,1.12344 c 6.13021,0.28316 13.09255,1.19026 21.337196,3.05925 -7.548865,0.63873 -14.874896,1.32084 -21.548556,2.9223 l 0.0233,1.31517 c 4.51172,-1.33926 11.91322,-2.6786 27.651013,-4.01785 -12.735622,2.86565 -20.237583,6.06937 -27.625173,9.28006 l -0.0186,1.80712 c 14.377511,-6.76469 25.024133,-9.73387 34.312633,-11.32179 -12.647537,4.53139 -21.333123,9.56578 -28.448903,14.79962 l 2.21226,-0.0217 c 12.807596,-8.71834 20.795983,-11.85251 28.123863,-14.22135 V 121.892 l -12.253,0.62166 c -8.779842,-2.35633 -16.325563,-3.14941 -23.808363,-3.86281 z m 35.733733,6.1743 c -7.54788,5.02511 -12.22862,9.35669 -15.777327,12.83229 l 2.050517,0.0481 c 5.2482,-5.76085 11.18902,-10.549 13.58677,-11.6179 z"
    />
  </g>
</svg>
