<?xml version="1.0" encoding="UTF-8" standalone="no"?>
<!-- Created with Inkscape (http://www.inkscape.org/) -->

<svg
   width="210mm"
   height="297mm"
   viewBox="0 0 210 297"
   version="1.1"
   id="svg1"
   xml:space="preserve"
   inkscape:version="1.4.3 (0d15f75, 2025-12-25)"
   sodipodi:docname="Logo Blend (Curvas).svg"
   inkscape:export-filename="Logo Blend Documento.png"
   inkscape:export-xdpi="130.62857"
   inkscape:export-ydpi="130.62857"
   xmlns:inkscape="http://www.inkscape.org/namespaces/inkscape"
   xmlns:sodipodi="http://sodipodi.sourceforge.net/DTD/sodipodi-0.dtd"
   xmlns:xlink="http://www.w3.org/1999/xlink"
   xmlns="http://www.w3.org/2000/svg"
   xmlns:svg="http://www.w3.org/2000/svg"><sodipodi:namedview
     id="namedview1"
     pagecolor="#ffffff"
     bordercolor="#000000"
     borderopacity="0.25"
     inkscape:showpageshadow="2"
     inkscape:pageopacity="0.0"
     inkscape:pagecheckerboard="0"
     inkscape:deskcolor="#d1d1d1"
     inkscape:document-units="mm"
     inkscape:zoom="1"
     inkscape:cx="264.5"
     inkscape:cy="501.5"
     inkscape:window-width="1920"
     inkscape:window-height="1009"
     inkscape:window-x="-8"
     inkscape:window-y="-8"
     inkscape:window-maximized="1"
     inkscape:current-layer="layer2" /><defs
     id="defs1"><linearGradient
       id="linearGradient18"
       inkscape:collect="always"><stop
         style="stop-color:#73abb5;stop-opacity:1;"
         offset="0.18072289"
         id="stop18" /><stop
         style="stop-color:#c4b23d;stop-opacity:1;"
         offset="0.52530122"
         id="stop20" /><stop
         style="stop-color:#cfb23a;stop-opacity:0.98823529;"
         offset="0.73012048"
         id="stop21" /><stop
         style="stop-color:#b78801;stop-opacity:1;"
         offset="1"
         id="stop19" /></linearGradient><linearGradient
       inkscape:collect="always"
       xlink:href="#linearGradient18"
       id="linearGradient19"
       x1="148.75375"
       y1="121.54374"
       x2="148.75375"
       y2="157.77414"
       gradientUnits="userSpaceOnUse"
       gradientTransform="translate(-52.375817,-28.665238)" /></defs><g
     inkscape:groupmode="layer"
     id="layer2"
     inkscape:label="Capa 2"
     style="display:inline;opacity:1"
     transform="translate(6.7351921,7.8577241)"
     sodipodi:insensitive="true"><path
       id="rect5"
       style="fill:url(#linearGradient19);fill-opacity:1;stroke-width:0.351345"
       d="m 78.468387,84.281877 v 3.42873 1.04076 19.011763 c 0,0.004 -1e-5,0.009 5.2e-4,0.0129 v 5.36608 l 6.29884,-5.25653 v -0.001 l 5.2e-4,5.2e-4 0.001,-5.2e-4 0.11472,0.11524 1.70843,1.69292 0.43253,-0.62529 h -10e-4 V 93.050337 h 12.077816 c 0.0303,-5.7e-4 0.0605,-5.1e-4 0.091,-5.1e-4 0.003,0 0.006,5.1e-4 0.009,5.1e-4 h 0.0155 v 0.001 c 3.000267,0.0146 5.412067,2.82244 5.412067,6.31021 v 0.0977 c 0,2.552833 -1.29191,4.742443 -3.16105,5.738663 v 0.29198 c 0.48209,-0.25735 0.96943,-0.61466 1.40767,-1.00356 l 5.08806,4.63899 0.0863,0.0791 0.65319,0.59428 c 2.81967,-2.69183 4.57182,-6.49216 4.57182,-10.716153 0,-8.17567 -6.56253,-14.76209 -14.728817,-14.80064 h -0.0946 z m 16.892516,19.294943 -4.026626,4.47673 -0.0326,-0.0253 -0.72295,-0.5457 -1.56993,1.58491 h -0.006 l -1.53945,1.48829 -0.77773,0.7183 -1.82521,-1.86242 -10e-4,-0.0134 -6.39083,5.27513 v 1.47898 c 0,0.003 3.4e-4,0.005 5.2e-4,0.008 l 6.15828,-5.07256 0.0682,0.0749 c 0.40071,0.79801 0.25256,1.79309 0.0403,2.73937 l 0.17209,-0.1204 -0.002,0.006 0.55345,-0.39171 0.3607,-0.25269 v -0.003 l 1.06971,-0.75757 h 0.001 l 3.50573,-2.8112 c 0.12405,0.42727 0.17666,0.94088 -0.81029,2.26549 l -0.03,0.0248 h 0.003 l 1.62316,-1.09761 c 0.46159,-0.25201 1.085211,-0.70998 1.204581,-0.0176 l 0.14004,1.11518 h 5.1e-4 l 3.305235,-2.3797 0.005,-0.62425 3.14295,3.20549 c 5.105597,2.59597 -0.0145,-0.008 5.059117,2.53576 l -3.77238,-5.009 2.51458,-2.29185 4.27777,3.85662 5.2e-4,-5.2e-4 h 5.1e-4 v -5.2e-4 h 5.2e-4 l 5.66529,4.97903 c -0.40691,-1.10502 -0.69515,-1.63234 -0.87953,-1.8123 l -4.05609,-3.72018 5.2e-4,-5.2e-4 5.2e-4,-5.2e-4 5.1e-4,-5.1e-4 -0.39222,-0.36587 -4.55011,-4.21576 -2.6572,2.43912 -1.190107,-1.20664 -0.0589,-0.0594 -2.6324,-2.6541 v 0.44648 h 0.006 l -1.8221,1.50275 0.86455,-1.50171 v -0.50178 h 5.2e-4 z m 8.251687,6.31693 -0.94258,0.8599 0.19068,0.37362 c 0.93324,0.44003 1.71652,0.94176 1.85984,1.90841 l 3.83646,1.33945 z m -25.180893,8.75709 0.0424,1.12344 c 6.13021,0.28316 13.09255,1.19026 21.337196,3.05925 -7.548865,0.63873 -14.874896,1.32084 -21.548556,2.9223 l 0.0233,1.31517 c 4.51172,-1.33926 11.91322,-2.6786 27.651013,-4.01785 -12.735622,2.86565 -20.237583,6.06937 -27.625173,9.28006 l -0.0186,1.80712 c 14.377511,-6.76469 25.024133,-9.73387 34.312633,-11.32179 -12.647537,4.53139 -21.333123,9.56578 -28.448903,14.79962 l 2.21226,-0.0217 c 12.807596,-8.71834 20.795983,-11.85251 28.123863,-14.22135 V 121.892 l -12.253,0.62166 c -8.779842,-2.35633 -16.325563,-3.14941 -23.808363,-3.86281 z m 35.733733,6.1743 c -7.54788,5.02511 -12.22862,9.35669 -15.777327,12.83229 l 2.050517,0.0481 c 5.2482,-5.76085 11.18902,-10.549 13.58677,-11.6179 z" /><path
       d="m 40.126158,177.71701 v -7.11834 h 2.751787 q 0.75483,0 1.275567,0.2341 0.525515,0.23409 0.797827,0.64972 0.272313,0.41086 0.272313,0.96504 0,0.41563 -0.152877,0.72617 -0.152878,0.31053 -0.429967,0.51596 -0.27709,0.20542 -0.654505,0.30575 v 0.0239 q 0.415634,0.043 0.75483,0.2532 0.343974,0.21021 0.549402,0.57807 0.205429,0.36308 0.205429,0.87904 0,0.58762 -0.281867,1.0367 -0.27709,0.44907 -0.831269,0.70228 -0.554179,0.24842 -1.380671,0.24842 z m 1.251681,-1.0367 h 1.476219 q 0.659282,0 1.003255,-0.26275 0.348751,-0.26754 0.348751,-0.74528 0,-0.32964 -0.157655,-0.56851 -0.157654,-0.24365 -0.453853,-0.37742 -0.291422,-0.13376 -0.707057,-0.13376 h -1.50966 z m 0,-3.06231 h 1.41889 q 0.353528,0 0.616285,-0.11944 0.262758,-0.12421 0.40608,-0.34875 0.143322,-0.22454 0.143322,-0.53507 0,-0.4443 -0.305754,-0.71183 -0.305754,-0.27232 -0.855156,-0.27232 h -1.423667 z m 5.068829,4.09901 v -7.11834 h 1.27079 v 6.02909 h 3.262969 v 1.08925 z m 5.412803,0 v -7.11834 h 4.877732 v 1.08925 h -3.606942 v 1.88708 h 3.339408 v 1.07014 h -3.339408 v 1.98262 h 3.61172 v 1.08925 z m 5.871433,0 v -7.11834 h 1.380671 l 2.493806,3.96047 q 0.114658,0.17677 0.272312,0.45864 0.162432,0.27709 0.339196,0.60195 0.176764,0.32486 0.343974,0.6545 l -0.138545,0.23887 q -0.01911,-0.32008 -0.03822,-0.72138 -0.01433,-0.40131 -0.02389,-0.76439 -0.0048,-0.36786 -0.0048,-0.58284 v -3.84582 h 1.27079 v 7.11834 H 62.24075 l -2.245381,-3.56395 q -0.138545,-0.22453 -0.329641,-0.54462 -0.191097,-0.32009 -0.425189,-0.73572 -0.234093,-0.41563 -0.506406,-0.91249 l 0.195874,-0.14332 q 0.02866,0.53029 0.043,0.98893 0.01911,0.45385 0.02389,0.79782 0.0096,0.34398 0.0096,0.54463 v 3.56872 z m 9.540483,0 h -1.796306 v -1.08447 h 1.729422 q 0.764385,0 1.266013,-0.28665 0.506405,-0.29142 0.75483,-0.8456 0.248425,-0.55418 0.248425,-1.352 0,-0.78827 -0.248425,-1.33768 -0.243648,-0.55418 -0.740498,-0.84082 -0.49685,-0.28664 -1.242126,-0.28664 H 65.44164 v -1.08448 h 1.882298 q 1.060584,0 1.82497,0.42997 0.769162,0.42997 1.180019,1.22779 0.415635,0.79305 0.415635,1.89186 0,1.10358 -0.415635,1.90618 -0.415634,0.79783 -1.189574,1.23257 -0.77394,0.42997 -1.867966,0.42997 z m -1.137023,-7.11834 v 7.11834 h -1.270791 v -7.11834 z m 10.433855,7.233 q -0.864711,0 -1.495329,-0.28187 -0.62584,-0.28664 -0.965036,-0.82171 -0.339196,-0.53507 -0.343973,-1.28035 h 1.242126 q 0.0096,0.41564 0.200651,0.71184 0.195873,0.29142 0.544624,0.44907 0.348751,0.15288 0.821714,0.15288 0.444299,0 0.769163,-0.12421 0.329641,-0.12899 0.511182,-0.35831 0.186319,-0.23409 0.186319,-0.54462 0,-0.25798 -0.138545,-0.4443 -0.138544,-0.18632 -0.429966,-0.32009 -0.291422,-0.13854 -0.745276,-0.24365 l -0.77394,-0.18154 q -1.027142,-0.23887 -1.533547,-0.71183 -0.501628,-0.47774 -0.501628,-1.2278 0,-0.64017 0.329641,-1.11313 0.329641,-0.47296 0.917262,-0.73572 0.592399,-0.26754 1.366339,-0.26754 0.788272,0 1.366338,0.27232 0.578066,0.27231 0.898153,0.76916 0.324863,0.49685 0.343973,1.18002 H 77.92978 q -0.03822,-0.53985 -0.415635,-0.8456 -0.377415,-0.30576 -0.9937,-0.30576 -0.391748,0 -0.697502,0.12899 -0.300976,0.12422 -0.472963,0.34398 -0.167209,0.21976 -0.167209,0.5064 0,0.2532 0.143322,0.43475 0.143322,0.17676 0.425189,0.30575 0.286645,0.12421 0.711834,0.22454 l 0.707056,0.16721 q 0.520738,0.11943 0.917262,0.2962 0.396525,0.17198 0.66406,0.41563 0.272312,0.24365 0.410857,0.56373 0.138545,0.32009 0.138545,0.72617 0,0.6545 -0.329641,1.1418 -0.329641,0.4873 -0.945927,0.75483 -0.611508,0.26276 -1.457109,0.26276 z m 6.788696,-0.005 q -0.950704,0 -1.700757,-0.44908 -0.745275,-0.45385 -1.175242,-1.27556 -0.429966,-0.82649 -0.429966,-1.93963 0,-1.12269 0.429966,-1.94918 0.429967,-0.82649 1.175242,-1.27557 0.750053,-0.44908 1.700757,-0.44908 0.950704,0 1.69598,0.44908 0.745276,0.44908 1.175242,1.27557 0.429967,0.82649 0.429967,1.94918 0,1.11791 -0.429967,1.9444 -0.429966,0.82172 -1.175242,1.27079 -0.745276,0.44908 -1.69598,0.44908 z m 0,-1.13702 q 0.578067,0 1.036698,-0.29142 0.458631,-0.2962 0.721388,-0.85994 0.267535,-0.56373 0.267535,-1.37589 0,-0.81694 -0.267535,-1.38067 -0.262757,-0.56851 -0.721388,-0.85993 -0.458631,-0.2962 -1.036698,-0.2962 -0.582843,0 -1.041474,0.2962 -0.458631,0.29142 -0.726166,0.85993 -0.262758,0.56373 -0.262758,1.38067 0,0.81216 0.262758,1.37589 0.267535,0.56374 0.726166,0.85994 0.458631,0.29142 1.041474,0.29142 z m 4.294889,1.02714 v -7.11834 h 4.739188 v 1.08925 h -3.468397 v 1.9874 h 3.200862 v 1.07014 h -3.200862 v 2.97155 z m 5.283813,-6.02909 v -1.08925 h 5.685114 v 1.08925 h -2.207162 v 6.02909 h -1.27079 v -6.02909 z m 7.963933,6.02909 -1.920513,-7.11834 h 1.342453 l 0.93637,3.82671 q 0.10033,0.40608 0.18632,0.82649 0.086,0.42041 0.16721,0.84082 0.0812,0.41564 0.15288,0.83127 h -0.22454 q 0.0812,-0.41563 0.16721,-0.83127 0.086,-0.42041 0.17676,-0.84082 0.0908,-0.42041 0.1911,-0.82649 l 0.97459,-3.82671 h 1.33767 l 0.96982,3.82671 q 0.10032,0.40608 0.19109,0.82649 0.0955,0.42041 0.18154,0.84082 0.086,0.41564 0.16721,0.83127 h -0.23409 q 0.0812,-0.41563 0.15765,-0.83127 0.0812,-0.42041 0.17199,-0.84082 0.0908,-0.42041 0.18154,-0.82649 l 0.93637,-3.82671 h 1.35201 l -1.93007,7.11834 h -1.43322 l -1.0797,-4.07513 q -0.11943,-0.46818 -0.22931,-1.00325 -0.10511,-0.53985 -0.2341,-1.16091 h 0.32009 q -0.12899,0.61628 -0.23409,1.15135 -0.10033,0.53507 -0.22454,1.01281 l -1.07492,4.07513 z m 7.0228,0 2.52725,-7.11834 h 1.59565 l 2.53203,7.11834 h -1.39023 l -1.25168,-3.73115 q -0.18632,-0.58763 -0.39175,-1.26602 -0.20065,-0.67839 -0.46341,-1.59087 h 0.33442 q -0.25798,0.91248 -0.46341,1.59087 -0.20543,0.67839 -0.39652,1.26602 l -1.26601,3.73115 z m 1.49533,-1.71509 v -1.0367 h 3.66904 v 1.0367 z m 5.8762,1.71509 v -7.11834 h 2.75657 q 0.78827,0 1.35678,0.28187 0.56851,0.27709 0.86949,0.78827 0.30575,0.51119 0.30575,1.20391 0,0.69272 -0.32008,1.19913 -0.31531,0.50163 -0.89816,0.77872 -0.58284,0.27231 -1.38067,0.27231 h -1.9444 v -1.04625 h 1.91574 q 0.43952,0 0.74527,-0.14333 0.30576,-0.1481 0.46341,-0.41563 0.16243,-0.27231 0.16243,-0.64495 0,-0.37264 -0.16243,-0.64017 -0.16243,-0.26754 -0.46818,-0.41564 -0.30576,-0.1481 -0.74528,-0.1481 h -1.38545 v 6.0482 z m 4.05602,0 -1.67209,-3.21519 h 1.36156 l 1.70553,3.21519 z m 2.26449,0 v -7.11834 h 4.87774 v 1.08925 h -3.60695 v 1.88708 h 3.33941 v 1.07014 h -3.33941 v 1.98262 h 3.61172 v 1.08925 z"
       id="text2"
       style="font-weight:600;font-size:9.78413px;line-height:0;font-family:'Inter 28pt';-inkscape-font-specification:'Inter 28pt Semi-Bold';letter-spacing:0px;word-spacing:0px;stroke-width:0.305754"
       transform="scale(1.1556058,0.86534697)"
       aria-label="BLEND SOFTWARE" /><path
       d="m 67.976731,192.36383 v -5.24765 h 0.413451 l 1.129039,3.1804 q 0.111314,0.29418 0.214677,0.59632 0.111313,0.29419 0.214676,0.59632 h 0.0318 q 0.111314,-0.30213 0.206726,-0.59632 0.103362,-0.30214 0.206725,-0.59632 l 1.129039,-3.1804 h 0.413451 v 5.24765 h -0.254431 v -3.65745 q 0,-0.20673 0,-0.4373 0.008,-0.23853 0.0159,-0.47706 0.008,-0.23853 0.0159,-0.45321 h -0.0318 l -0.4055,1.16084 -1.184696,3.27581 h -0.270334 l -1.192647,-3.27581 -0.413451,-1.16084 h -0.0318 q 0.008,0.21468 0.0159,0.45321 0.008,0.23853 0.008,0.47706 0.008,0.23057 0.008,0.4373 v 3.65745 z m 6.917352,0.0954 q -0.477058,0 -0.874608,-0.23853 -0.389598,-0.23853 -0.628127,-0.68378 -0.230578,-0.44526 -0.230578,-1.06543 0,-0.62018 0.230578,-1.06543 0.238529,-0.45321 0.612226,-0.69174 0.373696,-0.24648 0.795098,-0.24648 0.437303,0 0.755343,0.20673 0.32599,0.19877 0.500911,0.58837 0.174922,0.3896 0.174922,0.95412 0,0.0556 0,0.11926 0,0.0636 -0.0159,0.13517 h -2.925961 v -0.22263 h 2.703334 q 0,-0.78715 -0.325991,-1.16879 -0.32599,-0.3896 -0.866656,-0.3896 -0.333942,0 -0.651981,0.19877 -0.318039,0.19083 -0.524765,0.58837 -0.206725,0.3896 -0.206725,0.97798 0,0.54066 0.190824,0.94616 0.198774,0.39755 0.540666,0.62018 0.341892,0.21467 0.763294,0.21467 0.32599,0 0.588373,-0.0875 0.262382,-0.0875 0.461157,-0.23057 l 0.111313,0.17492 q -0.214676,0.14311 -0.485009,0.25443 -0.262383,0.11131 -0.691736,0.11131 z m 2.401201,-0.0954 v -3.80057 h 0.206726 l 0.0318,0.60428 h 0.0159 q 0.302137,-0.30214 0.612225,-0.50092 0.318039,-0.19877 0.707637,-0.19877 0.588373,0 0.866657,0.35779 0.278284,0.34985 0.278284,1.08929 v 2.4489 H 79.77599 v -2.4171 q 0,-0.63608 -0.214676,-0.94616 -0.214677,-0.31009 -0.707638,-0.31009 -0.357794,0 -0.65198,0.19082 -0.294186,0.19082 -0.667882,0.57247 v 2.91006 z m 5.422576,0.0954 q -0.715588,0 -1.144941,-0.50886 -0.429353,-0.51681 -0.429353,-1.47888 0,-0.61223 0.230579,-1.05748 0.238529,-0.45321 0.620176,-0.69969 0.389598,-0.24648 0.850755,-0.24648 0.349843,0 0.612226,0.12722 0.270333,0.11926 0.564519,0.34984 l -0.0159,-0.71559 v -1.6061 h 0.23853 v 5.74061 h -0.206726 l -0.0318,-0.50886 h -0.0159 q -0.238529,0.23853 -0.556568,0.4214 -0.31804,0.18287 -0.715589,0.18287 z m 0.0159,-0.22263 q 0.333942,0 0.64403,-0.17492 0.310088,-0.17492 0.628127,-0.49296 v -2.35349 q -0.318039,-0.28623 -0.596323,-0.4055 -0.278285,-0.11926 -0.580422,-0.11926 -0.4055,0 -0.73149,0.23853 -0.318039,0.23853 -0.508863,0.64403 -0.190823,0.4055 -0.190823,0.89846 0,0.78714 0.341892,1.28011 0.349843,0.485 0.993872,0.485 z m 4.388948,0.22263 q -0.453206,0 -0.842804,-0.23058 -0.381647,-0.23853 -0.612225,-0.68378 -0.230579,-0.44526 -0.230579,-1.07338 0,-0.63608 0.230579,-1.08134 0.230578,-0.4532 0.612225,-0.68378 0.389598,-0.23853 0.842804,-0.23853 0.453206,0 0.834853,0.23853 0.381647,0.23058 0.612226,0.68378 0.238529,0.44526 0.238529,1.08134 0,0.62812 -0.238529,1.07338 -0.230579,0.44525 -0.612226,0.68378 -0.381647,0.23058 -0.834853,0.23058 z m 0,-0.22263 q 0.4055,0 0.73149,-0.22262 0.325991,-0.22263 0.508863,-0.62018 0.190824,-0.39755 0.190824,-0.92231 0,-0.52477 -0.190824,-0.92232 -0.182872,-0.4055 -0.508863,-0.62812 -0.32599,-0.23058 -0.73149,-0.23058 -0.4055,0 -0.73149,0.23058 -0.318039,0.22262 -0.508863,0.62812 -0.190823,0.39755 -0.190823,0.92232 0,0.52476 0.190823,0.92231 0.190824,0.39755 0.508863,0.62018 0.32599,0.22262 0.73149,0.22262 z m 2.321684,0.12722 v -0.12722 l 2.337589,-3.45072 h -2.083157 v -0.22263 h 2.401196 v 0.12722 l -2.337588,3.45072 h 2.417098 v 0.22263 z m 4.27762,0.0954 q -0.294186,0 -0.548617,-0.10336 -0.246481,-0.11131 -0.397549,-0.33394 -0.151069,-0.23058 -0.151069,-0.58837 0,-0.63608 0.604275,-0.96207 0.604274,-0.33394 1.892333,-0.47706 0.008,-0.31009 -0.06361,-0.61223 -0.06361,-0.30213 -0.270333,-0.49296 -0.206726,-0.19877 -0.604275,-0.19877 -0.4055,0 -0.73149,0.15902 -0.32599,0.15107 -0.508863,0.28623 l -0.127215,-0.17492 q 0.119264,-0.0954 0.32599,-0.20672 0.206725,-0.11927 0.477059,-0.19878 0.270333,-0.0875 0.580421,-0.0875 0.445255,0 0.699686,0.19877 0.254432,0.19878 0.357795,0.52477 0.103362,0.32599 0.103362,0.70764 v 2.4648 h -0.206725 l -0.0318,-0.50886 h -0.0159 q -0.294186,0.23853 -0.65198,0.4214 -0.349844,0.18287 -0.731491,0.18287 z m 0.0159,-0.22263 q 0.349844,0 0.675834,-0.16697 0.32599,-0.16697 0.707637,-0.48501 v -1.38347 q -0.834853,0.0954 -1.327814,0.26239 -0.48501,0.15902 -0.699686,0.39755 -0.214676,0.23852 -0.214676,0.56451 0,0.43731 0.254431,0.62813 0.262382,0.18287 0.604274,0.18287 z"
       id="text5"
       style="font-weight:250;font-size:7.95098px;line-height:0;font-family:'Source Sans 3';-inkscape-font-specification:'Source Sans 3 weight=250';letter-spacing:0px;word-spacing:0px;fill:#66676b;stroke-width:0.262424"
       transform="scale(1.1793275,0.84794089)"
       aria-label="Mendoza" /></g></svg>
